<?xml version="1.0" encoding="UTF-8" standalone="no"?>
<svg
   version="1.1"
   width="256"
   height="256"
   viewBox="0 0 256 256"
   xml:space="preserve"
   id="svg8"
   sodipodi:docname="leaf-light.svg"
   inkscape:version="1.2.1 (9c6d41e410, 2022-07-14)"
   xmlns:inkscape="http://www.inkscape.org/namespaces/inkscape"
   xmlns:sodipodi="http://sodipodi.sourceforge.net/DTD/sodipodi-0.dtd"
   xmlns="http://www.w3.org/2000/svg"
   xmlns:svg="http://www.w3.org/2000/svg"><sodipodi:namedview
   id="namedview10"
   pagecolor="#ffffff"
   bordercolor="#666666"
   borderopacity="1.0"
   inkscape:showpageshadow="2"
   inkscape:pageopacity="0.0"
   inkscape:pagecheckerboard="0"
   inkscape:deskcolor="#d1d1d1"
   showgrid="false"
   inkscape:zoom="0.81933594"
   inkscape:cx="-360.65793"
   inkscape:cy="-39.056019"
   inkscape:window-width="1920"
   inkscape:window-height="1011"
   inkscape:window-x="0"
   inkscape:window-y="32"
   inkscape:window-maximized="1"
   inkscape:current-layer="g6" />

<defs
   id="defs2">
</defs>
<g
   style="stroke: none; stroke-width: 0; stroke-dasharray: none; stroke-linecap: butt; stroke-linejoin: miter; stroke-miterlimit: 10; fill: none; fill-rule: nonzero; opacity: 1;"
   transform="translate(1.4065934065934016 1.4065934065934016) scale(2.81 2.81)"
   id="g6">
	<path
   d="m 67.06074,76.135562 c 12.681966,-9.940531 16.226651,-30.54916 6.769651,-43.78116 -5.454,-7.272 -14.423972,-13.31102 -21.328972,-16.84702 -8.346,-4.273 -12.367539,-7.0674436 -16.519373,-13.5057178 -0.078,-0.407 -1.940783,-1.83196165 -4.173937,-1.69297128 C 28.55017,0.65619697 27.954392,3.3761124 27.740392,3.7301124 18.216938,22.07156 10.737805,38.140785 20.376805,58.854785 c 7.694,13.752 20.735008,19.888366 38.270008,18.736366 1.01,4.324 2.538156,7.128383 2.597156,11.561383 0.008,0.548 0.741595,0.847466 1.288595,0.847466 h 4.666 c 0.276,0 0.54,-0.114 0.729,-0.315 0.189,-0.202 0.374502,-1.671731 0.356502,-1.946731 M 63.571054,74.2984 c 1.385737,3.541971 1.739356,8.46162 2.28166,13.326067 l -2.075895,-0.01635 c -0.129,-4.515 -1.441193,-7.82949 -2.538193,-12.26149 -0.118,-0.475 -0.574541,-1.163089 -1.069541,-1.127089 C 42.802085,75.585539 31.200564,69.466 23.726564,56.116 c -8.859,-19.047 -1.145416,-34.711459 8.879,-52.575 4.297867,6.4016137 9.851,11.161 17.526,15.091 7.04,3.604 14.319,7.332 19.483,14.216 8.376,11.72 7.428779,25.29505 -0.234011,37.128199"
   style="opacity:1;fill:#000000;fill-rule:nonzero;stroke:none;stroke-width:8.40214;stroke-linecap:butt;stroke-linejoin:miter;stroke-miterlimit:10;stroke-dasharray:none"
   stroke-linecap="round"
   id="path4"
   sodipodi:nodetypes="cccccccccsscccccccccccc" />
<path
   style="fill:none;stroke:#000000;stroke-width:0.355872px;stroke-linecap:butt;stroke-linejoin:miter;stroke-opacity:1"
   d="M 40.054031,22.972218 Z"
   id="path329" /><path
   sodipodi:type="star"
   style="fill:#000000;stroke-width:1;stroke-dasharray:none;paint-order:stroke markers fill"
   id="path6438"
   inkscape:flatsided="true"
   sodipodi:sides="6"
   sodipodi:cx="67.980278"
   sodipodi:cy="134.66858"
   sodipodi:r1="34.22052"
   sodipodi:r2="29.635839"
   sodipodi:arg1="1.0392959"
   sodipodi:arg2="1.5628947"
   inkscape:rounded="0"
   inkscape:randomized="0"
   d="m 85.324174,164.1683 -34.219452,0.27039 -17.343896,-29.49972 16.875557,-29.77011 34.219451,-0.27039 17.343896,29.49971 z"
   transform="matrix(-0.35587189,0,0,0.35587189,81.759835,12.262715)"
   inkscape:transform-center-y="1.4639809e-06" /><path
   sodipodi:type="star"
   style="fill:#000000;fill-rule:nonzero;stroke:none;stroke-width:1;stroke-linecap:butt;stroke-linejoin:miter;stroke-miterlimit:10;stroke-dasharray:none;paint-order:stroke markers fill"
   id="path6438-7"
   inkscape:flatsided="true"
   sodipodi:sides="6"
   sodipodi:cx="67.980278"
   sodipodi:cy="134.66858"
   sodipodi:r1="34.22052"
   sodipodi:r2="29.635839"
   sodipodi:arg1="1.0392959"
   sodipodi:arg2="1.5628947"
   inkscape:rounded="0"
   inkscape:randomized="0"
   d="m 85.324174,164.1683 -34.219452,0.27039 -17.343896,-29.49972 16.875557,-29.77011 34.219451,-0.27039 17.343896,29.49971 z"
   transform="matrix(-0.35587189,0,0,0.35587189,63.609661,1.5308777)"
   inkscape:transform-center-y="1.4639809e-06" /><path
   sodipodi:type="star"
   style="fill:#000000;fill-rule:nonzero;stroke:none;stroke-width:1;stroke-linecap:butt;stroke-linejoin:miter;stroke-miterlimit:10;stroke-dasharray:none;paint-order:stroke markers fill"
   id="path6438-5"
   inkscape:flatsided="true"
   sodipodi:sides="6"
   sodipodi:cx="67.980278"
   sodipodi:cy="134.66858"
   sodipodi:r1="34.22052"
   sodipodi:r2="29.635839"
   sodipodi:arg1="1.0392959"
   sodipodi:arg2="1.5628947"
   inkscape:rounded="0"
   inkscape:randomized="0"
   d="m 85.324174,164.1683 -34.219452,0.27039 -17.343896,-29.49972 16.875557,-29.77011 34.219451,-0.27039 17.343896,29.49971 z"
   transform="matrix(-0.35587189,0,0,0.35587189,63.607773,-19.436262)"
   inkscape:transform-center-y="1.4639809e-06" /></g>
</svg>
