<?xml version="1.0" encoding="UTF-8" standalone="no"?>
<svg
   version="1.1"
   width="256"
   height="256"
   viewBox="0 0 256 256"
   xml:space="preserve"
   id="svg8"
   sodipodi:docname="leaf-light.svg"
   inkscape:version="1.2.1 (9c6d41e410, 2022-07-14)"
   xmlns:inkscape="http://www.inkscape.org/namespaces/inkscape"
   xmlns:sodipodi="http://sodipodi.sourceforge.net/DTD/sodipodi-0.dtd"
   xmlns="http://www.w3.org/2000/svg"
   xmlns:svg="http://www.w3.org/2000/svg"><sodipodi:namedview
   id="namedview10"
   pagecolor="#ffffff"
   bordercolor="#666666"
   borderopacity="1.0"
   inkscape:showpageshadow="2"
   inkscape:pageopacity="0.0"
   inkscape:pagecheckerboard="0"
   inkscape:deskcolor="#d1d1d1"
   showgrid="false"
   inkscape:zoom="0.81933594"
   inkscape:cx="-360.65792"
   inkscape:cy="-39.056019"
   inkscape:window-width="1920"
   inkscape:window-height="1011"
   inkscape:window-x="0"
   inkscape:window-y="32"
   inkscape:window-maximized="1"
   inkscape:current-layer="g6" />

<defs
   id="defs2">
</defs>
<g
   style="stroke: none; stroke-width: 0; stroke-dasharray: none; stroke-linecap: butt; stroke-linejoin: miter; stroke-miterlimit: 10; fill: none; fill-rule: nonzero; opacity: 1;"
   transform="translate(1.4065934065934016 1.4065934065934016) scale(2.81 2.81)"
   id="g6">
	<path
   d="M 26.119824,76.135562 C 13.437858,66.195031 9.8931732,45.586402 19.350173,32.354402 c 5.454,-7.272 14.423972,-13.31102 21.328972,-16.84702 8.346,-4.273 12.367539,-7.0674436 16.519373,-13.5057178 0.078,-0.407 1.940783,-1.83196165 4.173937,-1.69297128 3.257939,0.34750405 3.853717,3.06741948 4.067717,3.42141948 9.523454,18.3414476 17.002587,34.4106726 7.363587,55.1246726 -7.694,13.752 -20.735008,19.888366 -38.270008,18.736366 -1.01,4.324 -2.538156,7.128383 -2.597156,11.561383 C 31.928595,89.700534 31.195,90 30.648,90 h -4.666 c -0.276,0 -0.54,-0.114 -0.729,-0.315 -0.189,-0.202 -0.374502,-1.671731 -0.356502,-1.946731 M 29.60951,74.2984 c -1.385737,3.541971 -1.739356,8.46162 -2.28166,13.326067 l 2.075895,-0.01635 c 0.129,-4.515 1.441193,-7.82949 2.538193,-12.26149 0.118,-0.475 0.574541,-1.163089 1.069541,-1.127089 C 50.378479,75.585539 61.98,69.466 69.454,56.116 78.313,37.069 70.599416,21.404541 60.575,3.541 56.277133,9.9426137 50.724,14.702 43.049,18.632 36.009,22.236 28.73,25.964 23.566,32.848 15.19,44.568 16.137221,58.14305 23.800011,69.976199"
   style="opacity:1;fill:#000000;fill-rule:nonzero;stroke:none;stroke-width:8.40214;stroke-linecap:butt;stroke-linejoin:miter;stroke-miterlimit:10;stroke-dasharray:none"
   stroke-linecap="round"
   id="path4"
   sodipodi:nodetypes="cccccccccsscccccccccccc" />
<path
   style="fill:none;stroke:#000000;stroke-width:0.355872px;stroke-linecap:butt;stroke-linejoin:miter;stroke-opacity:1"
   d="M 53.126533,22.972218 Z"
   id="path329" /><path
   sodipodi:type="star"
   style="fill:#000000;stroke-width:1;stroke-dasharray:none;paint-order:stroke markers fill"
   id="path6438"
   inkscape:flatsided="true"
   sodipodi:sides="6"
   sodipodi:cx="67.980278"
   sodipodi:cy="134.66858"
   sodipodi:r1="34.22052"
   sodipodi:r2="29.635839"
   sodipodi:arg1="1.0392959"
   sodipodi:arg2="1.5628947"
   inkscape:rounded="0"
   inkscape:randomized="0"
   d="m 85.324174,164.1683 -34.219452,0.27039 -17.343896,-29.49972 16.875557,-29.77011 34.219451,-0.27039 17.343896,29.49971 z"
   transform="matrix(0.35587189,0,0,0.35587189,11.420729,12.262715)"
   inkscape:transform-center-y="1.4639809e-06" /><path
   sodipodi:type="star"
   style="fill:#000000;fill-rule:nonzero;stroke:none;stroke-width:1;stroke-linecap:butt;stroke-linejoin:miter;stroke-miterlimit:10;stroke-dasharray:none;paint-order:stroke markers fill"
   id="path6438-7"
   inkscape:flatsided="true"
   sodipodi:sides="6"
   sodipodi:cx="67.980278"
   sodipodi:cy="134.66858"
   sodipodi:r1="34.22052"
   sodipodi:r2="29.635839"
   sodipodi:arg1="1.0392959"
   sodipodi:arg2="1.5628947"
   inkscape:rounded="0"
   inkscape:randomized="0"
   d="m 85.324174,164.1683 -34.219452,0.27039 -17.343896,-29.49972 16.875557,-29.77011 34.219451,-0.27039 17.343896,29.49971 z"
   transform="matrix(0.35587189,0,0,0.35587189,29.570903,1.5308777)"
   inkscape:transform-center-y="1.4639809e-06" /><path
   sodipodi:type="star"
   style="fill:#000000;fill-rule:nonzero;stroke:none;stroke-width:1;stroke-linecap:butt;stroke-linejoin:miter;stroke-miterlimit:10;stroke-dasharray:none;paint-order:stroke markers fill"
   id="path6438-5"
   inkscape:flatsided="true"
   sodipodi:sides="6"
   sodipodi:cx="67.980278"
   sodipodi:cy="134.66858"
   sodipodi:r1="34.22052"
   sodipodi:r2="29.635839"
   sodipodi:arg1="1.0392959"
   sodipodi:arg2="1.5628947"
   inkscape:rounded="0"
   inkscape:randomized="0"
   d="m 85.324174,164.1683 -34.219452,0.27039 -17.343896,-29.49972 16.875557,-29.77011 34.219451,-0.27039 17.343896,29.49971 z"
   transform="matrix(0.35587189,0,0,0.35587189,29.572791,-19.436262)"
   inkscape:transform-center-y="1.4639809e-06" /></g>
</svg>
