<?xml version="1.0" encoding="UTF-8" standalone="no"?>
<svg
   version="1.1"
   width="256"
   height="256"
   viewBox="0 0 256 256"
   xml:space="preserve"
   id="svg8"
   sodipodi:docname="leaf-lights.svg"
   inkscape:version="1.2.1 (9c6d41e410, 2022-07-14)"
   xmlns:inkscape="http://www.inkscape.org/namespaces/inkscape"
   xmlns:sodipodi="http://sodipodi.sourceforge.net/DTD/sodipodi-0.dtd"
   xmlns="http://www.w3.org/2000/svg"
   xmlns:svg="http://www.w3.org/2000/svg"><sodipodi:namedview
   id="namedview10"
   pagecolor="#ffffff"
   bordercolor="#666666"
   borderopacity="1.0"
   inkscape:showpageshadow="2"
   inkscape:pageopacity="0.0"
   inkscape:pagecheckerboard="0"
   inkscape:deskcolor="#d1d1d1"
   showgrid="false"
   inkscape:zoom="1.6386719"
   inkscape:cx="-35.699642"
   inkscape:cy="175.75209"
   inkscape:window-width="1920"
   inkscape:window-height="1011"
   inkscape:window-x="0"
   inkscape:window-y="32"
   inkscape:window-maximized="1"
   inkscape:current-layer="g6" />

<defs
   id="defs2">
</defs>
<g
   style="stroke: none; stroke-width: 0; stroke-dasharray: none; stroke-linecap: butt; stroke-linejoin: miter; stroke-miterlimit: 10; fill: none; fill-rule: nonzero; opacity: 1;"
   transform="translate(1.4065934065934016 1.4065934065934016) scale(2.81 2.81)"
   id="g6">
	<path
   d="M 68.391225,76.354927 C 84.033969,66.414396 88.406209,45.805767 76.741343,32.573767 70.014032,25.301767 58.949898,19.262747 50.432832,15.726747 40.138345,11.453747 35.177922,8.659303 30.056786,2.2210288 29.960572,1.8140288 27.662901,0.38906719 24.908387,0.52805756 20.889838,0.87556161 20.154966,3.595477 19.891005,3.949477 8.1441719,22.290925 -1.0810672,38.36015 10.808289,59.07415 c 9.490269,13.752 25.575878,19.888366 47.204664,18.736366 1.245797,4.324 3.130723,7.128383 3.203497,11.561383 0.0099,0.548 0.91473,0.847466 1.589435,0.847466 h 5.755341 c 0.340436,0 0.66607,-0.114 0.899195,-0.315 0.233125,-0.202 0.461934,-1.671731 0.439732,-1.946731 M 64.086825,74.517765 c 1.709255,3.541971 2.145432,8.46162 2.814344,13.326067 l -2.560541,-0.01635 c -0.159116,-4.515 -1.777659,-7.82949 -3.130769,-12.26149 -0.145549,-0.475 -0.708675,-1.163089 -1.31924,-1.127089 C 38.469056,75.804904 24.159002,69.685365 14.940095,56.335365 4.0128403,37.288365 13.527265,21.623906 25.892019,3.7603646 c 5.301262,6.4016134 12.15085,11.1610004 21.617683,15.0910004 8.683584,3.604 17.661966,7.332 24.031572,14.216 10.331492,11.72 9.163129,25.29505 -0.288644,37.128199"
   style="opacity:1;fill:#000000;fill-rule:nonzero;stroke:none;stroke-width:9.33153;stroke-linecap:butt;stroke-linejoin:miter;stroke-miterlimit:10;stroke-dasharray:none"
   stroke-linecap="round"
   id="path4"
   sodipodi:nodetypes="cccccccccsscccccccccccc" />
<path
   style="fill:none;stroke:#000000;stroke-width:0.355872px;stroke-linecap:butt;stroke-linejoin:miter;stroke-opacity:1"
   d="M 35.707564,23.191583 Z"
   id="path329" /><path
   sodipodi:type="star"
   style="fill:#000000;stroke-width:1;stroke-dasharray:none;paint-order:stroke markers fill"
   id="path6438"
   inkscape:flatsided="true"
   sodipodi:sides="6"
   sodipodi:cx="67.980278"
   sodipodi:cy="134.66858"
   sodipodi:r1="34.22052"
   sodipodi:r2="29.635839"
   sodipodi:arg1="1.0392959"
   sodipodi:arg2="1.5628947"
   inkscape:rounded="0"
   inkscape:randomized="0"
   d="m 85.324174,164.1683 -34.219452,0.27039 -17.343896,-29.49972 16.875557,-29.77011 34.219451,-0.27039 17.343896,29.49971 z"
   transform="matrix(-0.35587189,0,0,0.35587189,77.413368,12.48208)"
   inkscape:transform-center-y="1.4639809e-06" /><path
   sodipodi:type="star"
   style="fill:#000000;fill-rule:nonzero;stroke:none;stroke-width:1;stroke-linecap:butt;stroke-linejoin:miter;stroke-miterlimit:10;stroke-dasharray:none;paint-order:stroke markers fill"
   id="path6438-7"
   inkscape:flatsided="true"
   sodipodi:sides="6"
   sodipodi:cx="67.980278"
   sodipodi:cy="134.66858"
   sodipodi:r1="34.22052"
   sodipodi:r2="29.635839"
   sodipodi:arg1="1.0392959"
   sodipodi:arg2="1.5628947"
   inkscape:rounded="0"
   inkscape:randomized="0"
   d="m 85.324174,164.1683 -34.219452,0.27039 -17.343896,-29.49972 16.875557,-29.77011 34.219451,-0.27039 17.343896,29.49971 z"
   transform="matrix(-0.35587189,0,0,0.35587189,59.263194,1.7502423)"
   inkscape:transform-center-y="1.4639809e-06" /><path
   sodipodi:type="star"
   style="fill:#000000;fill-rule:nonzero;stroke:none;stroke-width:1;stroke-linecap:butt;stroke-linejoin:miter;stroke-miterlimit:10;stroke-dasharray:none;paint-order:stroke markers fill"
   id="path6438-5"
   inkscape:flatsided="true"
   sodipodi:sides="6"
   sodipodi:cx="67.980278"
   sodipodi:cy="134.66858"
   sodipodi:r1="34.22052"
   sodipodi:r2="29.635839"
   sodipodi:arg1="1.0392959"
   sodipodi:arg2="1.5628947"
   inkscape:rounded="0"
   inkscape:randomized="0"
   d="m 85.324174,164.1683 -34.219452,0.27039 -17.343896,-29.49972 16.875557,-29.77011 34.219451,-0.27039 17.343896,29.49971 z"
   transform="matrix(-0.35587189,0,0,0.35587189,59.261306,-19.216897)"
   inkscape:transform-center-y="1.4639809e-06" /></g>
</svg>
